<svg width="97" height="114" viewBox="0 0 97 114" fill="none" xmlns="http://www.w3.org/2000/svg">
<path d="M2.03272 25.8584C1.2481 22.9239 2.99023 19.9064 5.92388 19.1187L56.5779 5.51695C59.5115 4.7292 62.5258 6.46947 63.3104 9.40395L84.0604 87.0097C84.845 89.9442 83.1029 92.9616 80.1693 93.7494L29.5152 107.351C26.5816 108.139 23.5674 106.399 22.7827 103.464L2.03272 25.8584Z" fill="white" stroke="#696CFF"/>
<path d="M19.9977 15.4742C19.5248 13.7054 20.5749 11.8866 22.3432 11.4117L40.6351 6.49995C42.4034 6.02511 44.2203 7.0741 44.6933 8.84293C45.1662 10.6118 44.1161 12.4306 42.3478 12.9054L24.0559 17.8172C22.2876 18.2921 20.4706 17.2431 19.9977 15.4742Z" fill="#696CFF"/>
<path d="M32.4125 9.60878C34.6016 9.02095 35.8964 6.76794 35.3116 4.58068C34.7267 2.39342 32.4814 1.09101 30.2922 1.67884C28.1031 2.26667 26.8084 4.51968 27.3932 6.70694C27.978 8.8942 30.2234 10.1966 32.4125 9.60878Z" fill="white" stroke="#696CFF" stroke-width="3"/>
<path d="M32.2856 27.2737C32.2856 24.2361 34.7481 21.7737 37.7856 21.7737H90.2248C93.2624 21.7737 95.7248 24.2361 95.7248 27.2737V107.619C95.7248 110.656 93.2624 113.119 90.2248 113.119H37.7856C34.7481 113.119 32.2856 110.656 32.2856 107.619V27.2737Z" fill="white" stroke="#696CFF"/>
<path d="M51.9773 21.2737C51.9773 19.4425 53.4618 17.958 55.293 17.958H74.2283C76.0595 17.958 77.544 19.4425 77.544 21.2737C77.544 23.105 76.0595 24.5895 74.2283 24.5895H55.293C53.4618 24.5895 51.9773 23.105 51.9773 21.2737Z" fill="#696CFF"/>
<path d="M65.4846 18.8281C67.7514 18.8281 69.5836 16.9874 69.5836 14.7235C69.5836 12.4596 67.7514 10.6189 65.4846 10.6189C63.2177 10.6189 61.3855 12.4596 61.3855 14.7235C61.3855 16.9874 63.2177 18.8281 65.4846 18.8281Z" fill="white" stroke="#696CFF" stroke-width="3"/>
<g clip-path="url(#clip0_48_4936)">
<path d="M69.0096 73.1126C67.6495 71.7496 65.8048 70.9839 63.8813 70.9839C61.9579 70.9839 60.3618 71.5004 59.0017 72.8635" stroke="#696CFF"/>
<ellipse cx="59.8789" cy="68.7191" rx="1.27021" ry="1.27293" fill="#696CFF"/>
<ellipse cx="68.1315" cy="68.7191" rx="1.27021" ry="1.27293" fill="#696CFF"/>
<path d="M68.1534 53.3352C68.3291 53.3658 68.4904 53.449 68.6163 53.5751L74.1967 59.1732L74.1969 59.1734C74.3229 59.2997 74.4057 59.4613 74.4365 59.6341H68.1534V53.3352ZM54.4286 53.3221H65.3293V60.5911C65.3293 61.6203 66.1678 62.4621 67.1974 62.4621H74.4498V80.6992C74.4498 81.1838 74.0628 81.5702 73.5818 81.5702H54.4286C53.9476 81.5702 53.5605 81.1838 53.5605 80.6992V54.1931C53.5605 53.7085 53.9476 53.3221 54.4286 53.3221Z" stroke="#696CFF"/>
</g>
<defs>
<clipPath id="clip0_48_4936">
<path d="M49.4124 58.8221C49.4124 55.5084 52.0986 52.8221 55.4124 52.8221H72.5981C75.9118 52.8221 78.5981 55.5084 78.5981 58.8221V76.0702C78.5981 79.3839 75.9118 82.0702 72.5981 82.0702H55.4124C52.0986 82.0702 49.4124 79.3839 49.4124 76.0702V58.8221Z" fill="white"/>
</clipPath>
</defs>
</svg>
