<svg width="32" height="32" viewBox="0 0 32 32" fill="none" xmlns="http://www.w3.org/2000/svg">
<path d="M24.2897 17.08L18.1051 23.92H15.6096V21.16L21.7942 14.32L24.2897 17.08ZM27.9787 16.12C27.9787 16.48 27.6532 16.84 27.3277 17.2L24.6152 20.2L23.6387 19.12L26.4597 16L25.8087 15.28L25.0492 16.12L22.5537 13.36L24.9407 10.84C25.1577 10.6 25.5917 10.6 25.9172 10.84L27.4362 12.52C27.6532 12.76 27.6532 13.24 27.4362 13.6C27.2192 13.84 27.0022 14.08 27.0022 14.32C27.0022 14.56 27.2192 14.8 27.4362 15.04C27.7617 15.4 28.0872 15.76 27.9787 16.12ZM6.17002 25.6V6.4H13.7651V12.4H19.1901V14.2L21.3602 11.8V11.2L14.8501 4H6.17002C4.97651 4 4 5.08 4 6.4V25.6C4 26.92 4.97651 28 6.17002 28H19.1901C20.3836 28 21.3602 26.92 21.3602 25.6H6.17002ZM14.8501 22.12C14.6331 22.12 14.4161 22.24 14.3076 22.24L13.7651 19.6H12.1376L9.85905 21.64L10.5101 18.4H8.88254L7.79753 24.4H9.42505L12.5716 21.28L13.2226 24.04H14.3076L14.8501 23.92V22.12Z" fill="#535763" fill-opacity="0.5"/>
</svg>
