<svg width="32" height="32" viewBox="0 0 32 32" fill="none" xmlns="http://www.w3.org/2000/svg">
<path d="M25.3333 4C26.0406 4 26.7189 4.28095 27.219 4.78105C27.719 5.28115 28 5.95942 28 6.66667V25.3333C28 26.8133 26.8 28 25.3333 28H6.66667C5.95942 28 5.28115 27.719 4.78105 27.219C4.28095 26.7189 4 26.0406 4 25.3333V6.66667C4 5.95942 4.28095 5.28115 4.78105 4.78105C5.28115 4.28095 5.95942 4 6.66667 4H25.3333ZM20.7733 22.6667L19.5067 17.2267L23.72 13.5867L18.16 13.1067L16 8L13.84 13.12L8.28 13.6L12.4933 17.24L11.2267 22.6667L16 19.7867L20.7733 22.6667Z" fill="#535763" fill-opacity="0.5"/>
</svg>
